<svg xmlns="http://www.w3.org/2000/svg" xmlns:xlink="http://www.w3.org/1999/xlink" width="1080" zoomAndPan="magnify" viewBox="0 0 810 809.999993" height="1080" preserveAspectRatio="xMidYMid meet" version="1.0"><path fill="#ffffff" d="M 689.207031 581.679688 C 763.828125 635.34375 810 709.964844 810 792.789062 C 810 802.304688 802.304688 810 792.890625 810 L 17.109375 810 C 7.695312 810 0 802.304688 0 792.789062 C 0 709.964844 46.171875 635.34375 120.792969 581.679688 C 193.792969 529.234375 294.332031 496.734375 405 496.734375 C 515.667969 496.734375 616.207031 529.234375 689.207031 581.679688 Z M 405 0 C 530.753906 0 632.710938 102.769531 632.710938 229.535156 C 632.710938 356.398438 530.753906 459.167969 405 459.167969 C 279.246094 459.167969 177.289062 356.398438 177.289062 229.535156 C 177.289062 102.769531 279.246094 0 405 0 Z M 405 0 " fill-opacity="1" fill-rule="evenodd"/><path fill="#173b61" d="M 614.980469 212.742188 C 614.980469 216.203125 614.894531 219.660156 614.726562 223.113281 C 614.554688 226.570312 614.300781 230.015625 613.964844 233.460938 C 613.625 236.902344 613.199219 240.332031 612.691406 243.753906 C 612.1875 247.175781 611.59375 250.582031 610.917969 253.976562 C 610.246094 257.367188 609.488281 260.742188 608.648438 264.097656 C 607.804688 267.453125 606.882812 270.785156 605.878906 274.09375 C 604.875 277.402344 603.792969 280.6875 602.625 283.945312 C 601.460938 287.199219 600.214844 290.425781 598.894531 293.621094 C 597.570312 296.816406 596.167969 299.980469 594.6875 303.105469 C 593.210938 306.230469 591.65625 309.320312 590.023438 312.371094 C 588.394531 315.421875 586.691406 318.429688 584.914062 321.398438 C 583.132812 324.363281 581.285156 327.285156 579.363281 330.160156 C 577.441406 333.035156 575.449219 335.863281 573.390625 338.640625 C 571.328125 341.421875 569.203125 344.144531 567.007812 346.820312 C 564.8125 349.492188 562.554688 352.113281 560.230469 354.675781 C 557.910156 357.238281 555.523438 359.742188 553.078125 362.1875 C 550.632812 364.632812 548.128906 367.015625 545.566406 369.339844 C 543.003906 371.664062 540.386719 373.921875 537.710938 376.117188 C 535.039062 378.308594 532.3125 380.4375 529.535156 382.496094 C 526.753906 384.558594 523.929688 386.550781 521.050781 388.472656 C 518.175781 390.394531 515.253906 392.242188 512.289062 394.019531 C 509.320312 395.800781 506.3125 397.503906 503.261719 399.132812 C 500.210938 400.765625 497.125 402.320312 493.996094 403.796875 C 490.871094 405.277344 487.710938 406.679688 484.511719 408 C 481.316406 409.324219 478.09375 410.570312 474.835938 411.734375 C 471.578125 412.898438 468.296875 413.984375 464.984375 414.988281 C 461.675781 415.992188 458.34375 416.914062 454.988281 417.753906 C 451.632812 418.597656 448.257812 419.351562 444.867188 420.027344 C 441.472656 420.703125 438.066406 421.292969 434.644531 421.800781 C 431.226562 422.308594 427.792969 422.734375 424.351562 423.070312 C 420.910156 423.410156 417.460938 423.664062 414.003906 423.835938 C 410.550781 424.003906 407.09375 424.089844 403.636719 424.089844 C 400.175781 424.089844 396.71875 424.003906 393.265625 423.835938 C 389.808594 423.664062 386.363281 423.410156 382.917969 423.070312 C 379.476562 422.734375 376.046875 422.308594 372.625 421.800781 C 369.203125 421.292969 365.796875 420.703125 362.402344 420.027344 C 359.011719 419.351562 355.636719 418.597656 352.28125 417.753906 C 348.925781 416.914062 345.59375 415.992188 342.285156 414.988281 C 338.976562 413.984375 335.691406 412.898438 332.433594 411.734375 C 329.179688 410.570312 325.953125 409.324219 322.757812 408 C 319.5625 406.679688 316.398438 405.277344 313.273438 403.796875 C 310.148438 402.320312 307.058594 400.765625 304.007812 399.132812 C 300.957031 397.503906 297.949219 395.800781 294.980469 394.019531 C 292.015625 392.242188 289.09375 390.394531 286.21875 388.472656 C 283.34375 386.550781 280.515625 384.558594 277.738281 382.496094 C 274.957031 380.4375 272.234375 378.308594 269.558594 376.117188 C 266.886719 373.921875 264.265625 371.664062 261.703125 369.339844 C 259.140625 367.015625 256.636719 364.632812 254.191406 362.1875 C 251.746094 359.742188 249.359375 357.238281 247.039062 354.675781 C 244.714844 352.113281 242.457031 349.492188 240.261719 346.820312 C 238.070312 344.144531 235.941406 341.421875 233.882812 338.640625 C 231.820312 335.863281 229.828125 333.035156 227.90625 330.160156 C 225.984375 327.285156 224.136719 324.363281 222.359375 321.398438 C 220.578125 318.429688 218.875 315.421875 217.246094 312.371094 C 215.613281 309.320312 214.058594 306.230469 212.582031 303.105469 C 211.101562 299.980469 209.699219 296.816406 208.378906 293.621094 C 207.054688 290.425781 205.808594 287.199219 204.644531 283.945312 C 203.480469 280.6875 202.394531 277.402344 201.390625 274.09375 C 200.386719 270.785156 199.464844 267.453125 198.625 264.097656 C 197.78125 260.742188 197.027344 257.367188 196.351562 253.976562 C 195.675781 250.582031 195.085938 247.175781 194.578125 243.753906 C 194.070312 240.332031 193.648438 236.902344 193.308594 233.460938 C 192.96875 230.015625 192.714844 226.570312 192.542969 223.113281 C 192.375 219.660156 192.289062 216.203125 192.289062 212.742188 C 192.289062 209.285156 192.375 205.828125 192.542969 202.375 C 192.714844 198.917969 192.96875 195.46875 193.308594 192.027344 C 193.648438 188.585938 194.070312 185.152344 194.578125 181.734375 C 195.085938 178.3125 195.675781 174.90625 196.351562 171.511719 C 197.027344 168.121094 197.78125 164.746094 198.625 161.390625 C 199.464844 158.035156 200.386719 154.703125 201.390625 151.394531 C 202.394531 148.082031 203.480469 144.800781 204.644531 141.542969 C 205.808594 138.285156 207.054688 135.0625 208.378906 131.867188 C 209.699219 128.667969 211.101562 125.507812 212.582031 122.382812 C 214.058594 119.253906 215.613281 116.167969 217.246094 113.117188 C 218.875 110.066406 220.578125 107.058594 222.359375 104.089844 C 224.136719 101.125 225.984375 98.203125 227.90625 95.328125 C 229.828125 92.449219 231.820312 89.625 233.882812 86.84375 C 235.941406 84.066406 238.070312 81.339844 240.261719 78.667969 C 242.457031 75.992188 244.714844 73.375 247.039062 70.8125 C 249.359375 68.25 251.746094 65.746094 254.191406 63.300781 C 256.636719 60.855469 259.140625 58.46875 261.703125 56.148438 C 264.265625 53.824219 266.886719 51.566406 269.558594 49.371094 C 272.234375 47.175781 274.957031 45.050781 277.738281 42.988281 C 280.515625 40.929688 283.34375 38.9375 286.21875 37.015625 C 289.09375 35.09375 292.015625 33.246094 294.980469 31.464844 C 297.949219 29.6875 300.957031 27.984375 304.007812 26.355469 C 307.058594 24.722656 310.148438 23.167969 313.273438 21.691406 C 316.398438 20.210938 319.5625 18.808594 322.757812 17.484375 C 325.953125 16.164062 329.179688 14.917969 332.433594 13.753906 C 335.691406 12.585938 338.976562 11.503906 342.285156 10.5 C 345.59375 9.496094 348.925781 8.574219 352.28125 7.730469 C 355.636719 6.890625 359.011719 6.132812 362.402344 5.460938 C 365.796875 4.785156 369.203125 4.191406 372.625 3.6875 C 376.046875 3.179688 379.476562 2.753906 382.917969 2.414062 C 386.363281 2.078125 389.808594 1.824219 393.265625 1.652344 C 396.71875 1.484375 400.175781 1.398438 403.636719 1.398438 C 407.09375 1.398438 410.550781 1.484375 414.003906 1.652344 C 417.460938 1.824219 420.910156 2.078125 424.351562 2.414062 C 427.792969 2.753906 431.226562 3.179688 434.644531 3.6875 C 438.066406 4.191406 441.472656 4.785156 444.867188 5.460938 C 448.257812 6.132812 451.632812 6.890625 454.988281 7.730469 C 458.34375 8.574219 461.675781 9.496094 464.984375 10.5 C 468.296875 11.503906 471.578125 12.585938 474.835938 13.753906 C 478.09375 14.917969 481.316406 16.164062 484.511719 17.484375 C 487.710938 18.808594 490.871094 20.210938 493.996094 21.691406 C 497.125 23.167969 500.210938 24.722656 503.261719 26.355469 C 506.3125 27.984375 509.320312 29.6875 512.289062 31.464844 C 515.253906 33.246094 518.175781 35.09375 521.050781 37.015625 C 523.929688 38.9375 526.753906 40.929688 529.535156 42.988281 C 532.3125 45.050781 535.039062 47.175781 537.710938 49.371094 C 540.386719 51.566406 543.003906 53.824219 545.566406 56.148438 C 548.128906 58.46875 550.632812 60.855469 553.078125 63.300781 C 555.523438 65.746094 557.910156 68.25 560.230469 70.8125 C 562.554688 73.375 564.8125 75.992188 567.007812 78.667969 C 569.203125 81.339844 571.328125 84.066406 573.390625 86.84375 C 575.449219 89.625 577.441406 92.449219 579.363281 95.328125 C 581.285156 98.203125 583.132812 101.125 584.914062 104.089844 C 586.691406 107.058594 588.394531 110.066406 590.023438 113.117188 C 591.65625 116.167969 593.210938 119.253906 594.6875 122.382812 C 596.167969 125.507812 597.570312 128.667969 598.894531 131.867188 C 600.214844 135.0625 601.460938 138.285156 602.625 141.542969 C 603.792969 144.800781 604.875 148.082031 605.878906 151.394531 C 606.882812 154.703125 607.804688 158.035156 608.648438 161.390625 C 609.488281 164.746094 610.246094 168.121094 610.917969 171.511719 C 611.59375 174.90625 612.1875 178.3125 612.691406 181.734375 C 613.199219 185.152344 613.625 188.585938 613.964844 192.027344 C 614.300781 195.46875 614.554688 198.917969 614.726562 202.375 C 614.894531 205.828125 614.980469 209.285156 614.980469 212.742188 Z M 614.980469 212.742188 " fill-opacity="1" fill-rule="nonzero"/><path fill="#173b61" d="M 119.601562 805.875 L 687.671875 805.875 C 689.730469 805.851562 691.789062 805.765625 693.84375 805.621094 C 695.898438 805.472656 697.949219 805.265625 699.992188 804.996094 C 702.035156 804.726562 704.070312 804.398438 706.089844 804.007812 C 708.113281 803.617188 710.125 803.164062 712.121094 802.652344 C 714.117188 802.140625 716.097656 801.570312 718.058594 800.941406 C 720.019531 800.3125 721.960938 799.621094 723.882812 798.875 C 725.804688 798.128906 727.699219 797.328125 729.574219 796.464844 C 731.445312 795.605469 733.292969 794.691406 735.109375 793.71875 C 736.925781 792.75 738.714844 791.726562 740.46875 790.648438 C 742.226562 789.570312 743.949219 788.441406 745.636719 787.261719 C 747.328125 786.078125 748.980469 784.847656 750.59375 783.570312 C 752.207031 782.289062 753.785156 780.960938 755.320312 779.585938 C 756.855469 778.210938 758.347656 776.792969 759.796875 775.328125 C 761.25 773.867188 762.65625 772.359375 764.015625 770.8125 C 765.375 769.265625 766.6875 767.675781 767.953125 766.050781 C 769.21875 764.421875 770.433594 762.761719 771.597656 761.058594 C 772.765625 759.359375 773.878906 757.628906 774.9375 755.859375 C 776 754.09375 777.007812 752.296875 777.960938 750.472656 C 778.914062 748.644531 779.8125 746.792969 780.65625 744.910156 C 781.5 743.03125 782.285156 741.125 783.015625 739.199219 C 783.742188 737.269531 784.414062 735.324219 785.027344 733.355469 C 785.636719 731.386719 786.191406 729.402344 786.683594 727.402344 C 787.175781 725.402344 787.609375 723.386719 787.980469 721.359375 C 788.351562 719.335938 788.664062 717.296875 788.914062 715.253906 C 789.164062 713.207031 789.355469 711.15625 789.480469 709.097656 C 789.609375 707.042969 789.675781 704.984375 789.679688 702.921875 C 789.683594 700.863281 789.625 698.804688 789.507812 696.746094 C 789.386719 694.6875 789.207031 692.636719 788.964844 690.589844 C 788.722656 688.542969 788.417969 686.507812 788.054688 684.476562 C 787.6875 682.449219 787.265625 680.433594 786.777344 678.429688 C 786.292969 676.429688 785.75 674.441406 785.144531 672.472656 C 784.539062 670.5 783.878906 668.550781 783.15625 666.621094 C 781.695312 662.921875 780.160156 659.246094 778.5625 655.605469 C 776.960938 651.960938 775.292969 648.347656 773.554688 644.765625 C 771.820312 641.1875 770.019531 637.640625 768.148438 634.125 C 766.28125 630.613281 764.347656 627.132812 762.347656 623.691406 C 760.347656 620.253906 758.285156 616.847656 756.160156 613.484375 C 754.035156 610.121094 751.84375 606.796875 749.59375 603.515625 C 747.34375 600.234375 745.03125 596.996094 742.660156 593.800781 C 740.289062 590.605469 737.859375 587.453125 735.367188 584.351562 C 732.878906 581.246094 730.332031 578.1875 727.726562 575.179688 C 725.121094 572.171875 722.460938 569.210938 719.746094 566.300781 C 717.03125 563.394531 714.261719 560.535156 711.441406 557.730469 C 708.617188 554.921875 705.746094 552.171875 702.820312 549.472656 C 699.894531 546.773438 696.917969 544.132812 693.894531 541.546875 C 690.871094 538.957031 687.800781 536.429688 684.679688 533.957031 C 681.5625 531.484375 678.398438 529.074219 675.1875 526.71875 C 671.980469 524.367188 668.726562 522.074219 665.433594 519.84375 C 662.136719 517.609375 658.800781 515.441406 655.425781 513.335938 C 652.050781 511.226562 648.632812 509.183594 645.183594 507.207031 C 641.730469 505.226562 638.242188 503.3125 634.714844 501.464844 C 631.191406 499.617188 627.632812 497.835938 624.042969 496.121094 C 620.453125 494.40625 616.828125 492.757812 613.175781 491.179688 C 609.523438 489.601562 605.84375 488.089844 602.132812 486.648438 C 598.425781 485.207031 594.6875 483.835938 590.929688 482.53125 C 587.167969 481.230469 583.382812 480 579.578125 478.839844 C 575.769531 477.679688 571.941406 476.589844 568.09375 475.574219 C 564.246094 474.558594 560.382812 473.613281 556.5 472.742188 C 552.617188 471.871094 548.71875 471.070312 544.804688 470.34375 C 540.894531 469.617188 536.96875 468.964844 533.03125 468.386719 C 529.09375 467.808594 525.148438 467.300781 521.191406 466.871094 C 517.234375 466.441406 513.273438 466.082031 509.300781 465.800781 C 505.332031 465.515625 501.359375 465.308594 497.382812 465.175781 C 493.40625 465.039062 489.425781 464.980469 485.445312 464.996094 L 321.824219 464.996094 C 317.847656 464.992188 313.871094 465.066406 309.898438 465.214844 C 305.925781 465.363281 301.953125 465.582031 297.988281 465.878906 C 294.023438 466.171875 290.0625 466.542969 286.113281 466.984375 C 282.160156 467.425781 278.21875 467.941406 274.285156 468.53125 C 270.351562 469.121094 266.429688 469.78125 262.523438 470.515625 C 258.613281 471.25 254.722656 472.058594 250.84375 472.9375 C 246.964844 473.820312 243.105469 474.769531 239.261719 475.792969 C 235.417969 476.816406 231.597656 477.914062 227.792969 479.078125 C 223.992188 480.246094 220.214844 481.480469 216.457031 482.785156 C 212.703125 484.09375 208.972656 485.46875 205.265625 486.914062 C 201.5625 488.359375 197.886719 489.875 194.238281 491.457031 C 190.589844 493.039062 186.96875 494.6875 183.382812 496.40625 C 179.796875 498.121094 176.242188 499.90625 172.722656 501.753906 C 169.203125 503.601562 165.714844 505.515625 162.265625 507.496094 C 158.816406 509.476562 155.40625 511.519531 152.03125 513.625 C 148.660156 515.730469 145.328125 517.898438 142.035156 520.128906 C 138.742188 522.355469 135.492188 524.648438 132.285156 527 C 129.074219 529.351562 125.914062 531.757812 122.796875 534.226562 C 119.679688 536.695312 116.609375 539.222656 113.582031 541.804688 C 110.558594 544.386719 107.585938 547.027344 104.660156 549.71875 C 101.734375 552.414062 98.859375 555.160156 96.035156 557.960938 C 93.214844 560.761719 90.445312 563.613281 87.726562 566.519531 C 85.007812 569.421875 82.347656 572.375 79.738281 575.378906 C 77.132812 578.382812 74.582031 581.433594 72.089844 584.53125 C 69.59375 587.628906 67.160156 590.769531 64.785156 593.960938 C 62.40625 597.148438 60.089844 600.378906 57.835938 603.652344 C 55.578125 606.929688 53.382812 610.246094 51.25 613.601562 C 49.117188 616.957031 47.046875 620.351562 45.042969 623.785156 C 43.035156 627.21875 41.09375 630.6875 39.214844 634.195312 C 37.339844 637.699219 35.527344 641.238281 33.78125 644.8125 C 32.035156 648.386719 30.355469 651.988281 28.746094 655.625 C 27.132812 659.261719 25.589844 662.925781 24.117188 666.617188 C 23.394531 668.550781 22.730469 670.5 22.125 672.46875 C 21.523438 674.441406 20.976562 676.425781 20.492188 678.429688 C 20.003906 680.433594 19.578125 682.449219 19.214844 684.476562 C 18.851562 686.503906 18.546875 688.542969 18.304688 690.589844 C 18.0625 692.636719 17.878906 694.6875 17.761719 696.746094 C 17.640625 698.800781 17.582031 700.859375 17.585938 702.921875 C 17.589844 704.984375 17.65625 707.042969 17.78125 709.097656 C 17.910156 711.15625 18.097656 713.207031 18.347656 715.253906 C 18.597656 717.296875 18.910156 719.335938 19.28125 721.363281 C 19.652344 723.390625 20.085938 725.402344 20.578125 727.402344 C 21.070312 729.40625 21.625 731.390625 22.234375 733.359375 C 22.847656 735.324219 23.519531 737.273438 24.246094 739.203125 C 24.976562 741.128906 25.761719 743.035156 26.605469 744.914062 C 27.445312 746.796875 28.34375 748.648438 29.296875 750.476562 C 30.253906 752.300781 31.261719 754.097656 32.320312 755.867188 C 33.382812 757.632812 34.496094 759.367188 35.664062 761.066406 C 36.828125 762.765625 38.042969 764.429688 39.308594 766.054688 C 40.574219 767.683594 41.886719 769.269531 43.246094 770.816406 C 44.605469 772.367188 46.011719 773.871094 47.464844 775.335938 C 48.914062 776.800781 50.40625 778.21875 51.941406 779.59375 C 53.476562 780.96875 55.054688 782.296875 56.667969 783.574219 C 58.285156 784.855469 59.9375 786.085938 61.625 787.265625 C 63.3125 788.449219 65.035156 789.578125 66.792969 790.65625 C 68.550781 791.730469 70.335938 792.757812 72.15625 793.726562 C 73.972656 794.699219 75.820312 795.613281 77.691406 796.472656 C 79.566406 797.332031 81.460938 798.136719 83.382812 798.882812 C 85.304688 799.628906 87.246094 800.316406 89.207031 800.945312 C 91.171875 801.574219 93.148438 802.144531 95.148438 802.65625 C 97.144531 803.167969 99.152344 803.621094 101.175781 804.011719 C 103.199219 804.402344 105.234375 804.730469 107.277344 805 C 109.320312 805.269531 111.371094 805.476562 113.425781 805.621094 C 115.480469 805.769531 117.539062 805.851562 119.601562 805.875 Z M 119.601562 805.875 " fill-opacity="1" fill-rule="nonzero"/></svg>