<svg xmlns="http://www.w3.org/2000/svg" xmlns:xlink="http://www.w3.org/1999/xlink" width="1080" zoomAndPan="magnify" viewBox="0 0 810 809.999993" height="1080" preserveAspectRatio="xMidYMid meet" version="1.0"><defs><clipPath id="ecb256b899"><path d="M 2 156.109375 L 406 156.109375 L 406 654.109375 L 2 654.109375 Z M 2 156.109375 " clip-rule="nonzero"/></clipPath><clipPath id="790c54ace0"><path d="M 405 156.109375 L 808 156.109375 L 808 654.109375 L 405 654.109375 Z M 405 156.109375 " clip-rule="nonzero"/></clipPath></defs><path fill="#ff5f00" d="M 296.109375 209.367188 L 513.890625 209.367188 L 513.890625 600.851562 L 296.109375 600.851562 Z M 296.109375 209.367188 " fill-opacity="1" fill-rule="nonzero"/><g clip-path="url(#ecb256b899)"><path fill="#eb001b" d="M 309.9375 405.109375 C 309.9375 329.027344 345.199219 256.402344 404.65625 209.367188 C 296.800781 124.292969 140.554688 142.96875 55.519531 251.558594 C -29.519531 359.460938 -10.851562 515.777344 97.691406 600.851562 C 188.257812 672.09375 314.777344 672.09375 405.34375 600.851562 C 345.199219 553.816406 309.9375 481.191406 309.9375 405.109375 Z M 309.9375 405.109375 " fill-opacity="1" fill-rule="nonzero"/></g><g clip-path="url(#790c54ace0)"><path fill="#f79e1b" d="M 807.714844 405.109375 C 807.714844 542.75 696.40625 654.109375 558.828125 654.109375 C 502.828125 654.109375 448.902344 635.433594 405.34375 600.851562 C 513.199219 515.777344 531.863281 359.460938 446.828125 250.867188 C 434.382812 235.652344 420.554688 221.125 405.34375 209.367188 C 513.199219 124.292969 670.136719 142.96875 754.480469 251.558594 C 789.050781 295.132812 807.714844 349.085938 807.714844 405.109375 Z M 807.714844 405.109375 " fill-opacity="1" fill-rule="nonzero"/></g><path fill="#f79e1b" d="M 784.210938 559.351562 L 784.210938 551.050781 L 787.667969 551.050781 L 787.667969 549.667969 L 779.371094 549.667969 L 779.371094 551.050781 L 782.828125 551.050781 L 782.828125 559.351562 Z M 800.109375 559.351562 L 800.109375 549.667969 L 797.34375 549.667969 L 794.578125 556.585938 L 791.8125 549.667969 L 789.050781 549.667969 L 789.050781 559.351562 L 791.125 559.351562 L 791.125 551.742188 L 793.886719 557.96875 L 795.960938 557.96875 L 798.726562 551.742188 L 798.726562 559.351562 Z M 800.109375 559.351562 " fill-opacity="1" fill-rule="nonzero"/></svg>