<svg xmlns="http://www.w3.org/2000/svg" xmlns:xlink="http://www.w3.org/1999/xlink" width="1080" zoomAndPan="magnify" viewBox="0 0 810 809.999993" height="1080" preserveAspectRatio="xMidYMid meet" version="1.0"><path fill="#001c64" d="M 640.777344 233.210938 C 642.582031 139.304688 565.09375 67.214844 458.542969 67.214844 L 238.191406 67.214844 C 236.917969 67.214844 235.652344 67.324219 234.398438 67.550781 C 233.144531 67.773438 231.917969 68.109375 230.722656 68.550781 C 229.53125 68.992188 228.382812 69.535156 227.285156 70.179688 C 226.183594 70.824219 225.152344 71.558594 224.183594 72.386719 C 223.214844 73.214844 222.328125 74.121094 221.519531 75.109375 C 220.710938 76.09375 219.996094 77.140625 219.375 78.253906 C 218.753906 79.367188 218.234375 80.523438 217.816406 81.726562 C 217.398438 82.929688 217.09375 84.164062 216.894531 85.421875 L 128.585938 637.167969 C 128.488281 637.789062 128.425781 638.417969 128.394531 639.046875 C 128.363281 639.675781 128.367188 640.304688 128.402344 640.9375 C 128.441406 641.566406 128.511719 642.191406 128.617188 642.8125 C 128.722656 643.4375 128.859375 644.050781 129.03125 644.65625 C 129.203125 645.265625 129.40625 645.863281 129.640625 646.445312 C 129.878906 647.03125 130.144531 647.601562 130.441406 648.160156 C 130.738281 648.714844 131.066406 649.253906 131.421875 649.773438 C 131.777344 650.296875 132.160156 650.796875 132.570312 651.277344 C 132.980469 651.757812 133.414062 652.210938 133.875 652.644531 C 134.332031 653.078125 134.8125 653.484375 135.316406 653.867188 C 135.820312 654.246094 136.339844 654.597656 136.882812 654.921875 C 137.425781 655.246094 137.980469 655.542969 138.554688 655.804688 C 139.125 656.070312 139.710938 656.304688 140.308594 656.503906 C 140.910156 656.703125 141.515625 656.875 142.132812 657.007812 C 142.75 657.144531 143.371094 657.246094 143.996094 657.3125 C 144.625 657.382812 145.253906 657.417969 145.882812 657.417969 L 276.445312 657.417969 L 256.027344 785.195312 C 255.929688 785.816406 255.863281 786.445312 255.832031 787.074219 C 255.804688 787.707031 255.804688 788.335938 255.84375 788.964844 C 255.882812 789.597656 255.953125 790.222656 256.058594 790.84375 C 256.164062 791.46875 256.300781 792.082031 256.472656 792.691406 C 256.644531 793.296875 256.847656 793.894531 257.085938 794.480469 C 257.320312 795.066406 257.585938 795.636719 257.886719 796.191406 C 258.183594 796.75 258.511719 797.289062 258.867188 797.808594 C 259.222656 798.328125 259.605469 798.832031 260.015625 799.308594 C 260.425781 799.789062 260.859375 800.246094 261.320312 800.679688 C 261.78125 801.113281 262.261719 801.519531 262.765625 801.898438 C 263.269531 802.28125 263.792969 802.632812 264.332031 802.957031 C 264.875 803.28125 265.433594 803.574219 266.003906 803.839844 C 266.578125 804.101562 267.164062 804.335938 267.761719 804.535156 C 268.363281 804.738281 268.96875 804.902344 269.585938 805.039062 C 270.203125 805.175781 270.824219 805.273438 271.453125 805.34375 C 272.082031 805.410156 272.710938 805.445312 273.339844 805.445312 L 379.6875 805.445312 C 384.835938 805.445312 389.40625 803.585938 393.304688 800.261719 C 397.203125 796.921875 397.84375 792.316406 398.636719 787.234375 L 429.855469 603.550781 C 430.648438 598.488281 433.230469 591.90625 437.148438 588.566406 C 441.046875 585.226562 444.453125 583.402344 449.582031 583.386719 L 514.6875 583.386719 C 619.027344 583.386719 707.570312 509.238281 723.75 406.078125 C 735.191406 332.84375 703.804688 266.238281 640.792969 233.210938 Z M 640.777344 233.210938 " fill-opacity="1" fill-rule="nonzero"/><path fill="#0070e0" d="M 304.695312 453.9375 L 272.175781 660.148438 L 251.757812 789.480469 C 251.660156 790.101562 251.59375 790.730469 251.5625 791.359375 C 251.535156 791.992188 251.535156 792.621094 251.574219 793.253906 C 251.613281 793.882812 251.683594 794.507812 251.789062 795.132812 C 251.894531 795.753906 252.03125 796.367188 252.203125 796.976562 C 252.375 797.582031 252.578125 798.179688 252.816406 798.765625 C 253.050781 799.351562 253.316406 799.921875 253.617188 800.476562 C 253.914062 801.035156 254.242188 801.574219 254.597656 802.09375 C 254.953125 802.617188 255.335938 803.117188 255.746094 803.597656 C 256.15625 804.078125 256.589844 804.53125 257.050781 804.964844 C 257.511719 805.398438 257.992188 805.804688 258.496094 806.1875 C 259 806.566406 259.523438 806.917969 260.0625 807.242188 C 260.605469 807.566406 261.164062 807.863281 261.734375 808.125 C 262.308594 808.390625 262.894531 808.621094 263.492188 808.824219 C 264.09375 809.023438 264.699219 809.191406 265.316406 809.324219 C 265.933594 809.460938 266.554688 809.5625 267.183594 809.628906 C 267.8125 809.695312 268.441406 809.730469 269.070312 809.730469 L 381.628906 809.730469 C 382.902344 809.726562 384.164062 809.613281 385.417969 809.390625 C 386.671875 809.164062 387.894531 808.832031 389.089844 808.390625 C 390.285156 807.949219 391.429688 807.402344 392.527344 806.757812 C 393.625 806.113281 394.65625 805.378906 395.625 804.550781 C 396.59375 803.722656 397.480469 802.816406 398.285156 801.832031 C 399.09375 800.84375 399.808594 799.796875 400.429688 798.6875 C 401.050781 797.574219 401.570312 796.417969 401.984375 795.214844 C 402.402344 794.011719 402.710938 792.78125 402.90625 791.523438 L 432.574219 603.535156 C 432.773438 602.277344 433.078125 601.046875 433.496094 599.84375 C 433.914062 598.640625 434.429688 597.484375 435.050781 596.375 C 435.675781 595.261719 436.386719 594.214844 437.195312 593.230469 C 438.003906 592.246094 438.890625 591.339844 439.855469 590.511719 C 440.824219 589.683594 441.855469 588.949219 442.957031 588.304688 C 444.054688 587.660156 445.199219 587.117188 446.394531 586.679688 C 447.585938 586.238281 448.8125 585.902344 450.0625 585.679688 C 451.316406 585.457031 452.582031 585.34375 453.851562 585.34375 L 520.121094 585.34375 C 624.460938 585.34375 712.984375 509.238281 729.167969 406.078125 C 740.644531 332.859375 703.789062 266.253906 640.777344 233.210938 C 640.609375 241.007812 639.933594 248.789062 638.734375 256.5 C 622.550781 359.640625 534.007812 435.761719 429.671875 435.761719 L 325.972656 435.761719 C 324.703125 435.761719 323.441406 435.875 322.1875 436.097656 C 320.933594 436.324219 319.710938 436.65625 318.519531 437.097656 C 317.324219 437.535156 316.179688 438.078125 315.082031 438.722656 C 313.984375 439.363281 312.949219 440.101562 311.984375 440.925781 C 311.015625 441.753906 310.128906 442.65625 309.320312 443.640625 C 308.515625 444.625 307.800781 445.671875 307.175781 446.78125 C 306.554688 447.890625 306.035156 449.046875 305.621094 450.25 C 305.203125 451.453125 304.894531 452.679688 304.695312 453.9375 Z M 304.695312 453.9375 " fill-opacity="1" fill-rule="nonzero"/><path fill="#003087" d="M 272.160156 660.148438 L 141.210938 660.148438 C 140.578125 660.152344 139.949219 660.117188 139.320312 660.050781 C 138.695312 659.980469 138.074219 659.878906 137.457031 659.746094 C 136.839844 659.609375 136.230469 659.441406 135.632812 659.242188 C 135.035156 659.042969 134.449219 658.808594 133.875 658.546875 C 133.300781 658.28125 132.746094 657.988281 132.203125 657.664062 C 131.664062 657.339844 131.140625 656.988281 130.636719 656.605469 C 130.132812 656.226562 129.652344 655.816406 129.191406 655.386719 C 128.734375 654.953125 128.296875 654.496094 127.890625 654.015625 C 127.480469 653.535156 127.097656 653.035156 126.742188 652.515625 C 126.382812 651.992188 126.058594 651.453125 125.761719 650.898438 C 125.464844 650.339844 125.195312 649.769531 124.960938 649.183594 C 124.726562 648.597656 124.523438 648.003906 124.351562 647.394531 C 124.179688 646.789062 124.042969 646.171875 123.9375 645.550781 C 123.832031 644.925781 123.761719 644.300781 123.726562 643.671875 C 123.6875 643.039062 123.6875 642.410156 123.71875 641.78125 C 123.75 641.148438 123.8125 640.523438 123.914062 639.898438 L 212.203125 79.953125 C 212.402344 78.695312 212.710938 77.464844 213.125 76.261719 C 213.542969 75.058594 214.0625 73.898438 214.683594 72.789062 C 215.304688 71.675781 216.019531 70.628906 216.828125 69.644531 C 217.636719 68.660156 218.523438 67.753906 219.492188 66.925781 C 220.460938 66.097656 221.496094 65.363281 222.59375 64.71875 C 223.691406 64.074219 224.839844 63.535156 226.035156 63.09375 C 227.230469 62.652344 228.453125 62.320312 229.707031 62.097656 C 230.960938 61.875 232.226562 61.761719 233.5 61.761719 L 458.5625 61.761719 C 565.09375 61.761719 642.582031 139.304688 640.777344 233.210938 C 614.265625 219.308594 583.117188 211.359375 548.976562 211.359375 L 361.34375 211.359375 C 360.070312 211.359375 358.808594 211.472656 357.554688 211.699219 C 356.304688 211.921875 355.082031 212.257812 353.886719 212.699219 C 352.691406 213.140625 351.546875 213.683594 350.449219 214.324219 C 349.351562 214.96875 348.320312 215.707031 347.351562 216.53125 C 346.382812 217.359375 345.496094 218.265625 344.691406 219.25 C 343.882812 220.234375 343.167969 221.28125 342.546875 222.390625 C 341.925781 223.503906 341.40625 224.660156 340.988281 225.859375 C 340.570312 227.0625 340.265625 228.292969 340.066406 229.550781 L 304.710938 453.9375 L 272.144531 660.148438 Z M 272.160156 660.148438 " fill-opacity="1" fill-rule="nonzero"/></svg>