<svg xmlns="http://www.w3.org/2000/svg" xmlns:xlink="http://www.w3.org/1999/xlink" width="1080" zoomAndPan="magnify" viewBox="0 0 810 809.999993" height="1080" preserveAspectRatio="xMidYMid meet" version="1.0"><defs><clipPath id="4bcbb4dcdf"><path d="M 15.1875 0 L 788 0 L 788 803 L 15.1875 803 Z M 15.1875 0 " clip-rule="nonzero"/></clipPath></defs><g clip-path="url(#4bcbb4dcdf)"><path fill="#fd8916" d="M 343.898438 -0.00390625 C 256.746094 -0.00390625 173.167969 34.621094 111.542969 96.246094 C 49.917969 157.867188 15.300781 241.445312 15.300781 328.597656 C 15.300781 415.746094 49.917969 499.324219 111.542969 560.953125 C 173.167969 622.574219 256.746094 657.195312 343.898438 657.195312 C 398.609375 656.902344 452.382812 642.957031 500.335938 616.617188 L 661.671875 780.636719 C 690.152344 809.597656 736.402344 809.980469 765.363281 781.492188 C 794.320312 753.007812 794.707031 706.757812 766.222656 677.796875 L 610.457031 519.441406 C 650.535156 463.851562 672.222656 397.125 672.496094 328.597656 C 672.496094 241.445312 637.875 157.867188 576.25 96.246094 C 514.625 34.621094 431.046875 -0.00390625 343.898438 -0.00390625 Z M 347.652344 95.542969 C 405.886719 95.542969 461.730469 119.765625 502.90625 162.867188 C 544.082031 205.976562 567.214844 264.445312 567.214844 325.402344 C 567.070312 391.46875 539.777344 454.277344 492.296875 497.804688 C 491.238281 498.734375 490.1875 499.695312 489.167969 500.695312 C 488.597656 501.261719 488.050781 501.84375 487.5 502.421875 C 448.171875 536.523438 398.71875 555.207031 347.652344 555.257812 C 289.421875 555.257812 233.574219 531.039062 192.398438 487.933594 C 151.222656 444.828125 128.089844 386.363281 128.089844 325.402344 C 128.089844 264.445312 151.222656 205.976562 192.398438 162.867188 C 233.574219 119.765625 289.421875 95.542969 347.652344 95.542969 Z M 347.652344 95.542969 " fill-opacity="1" fill-rule="evenodd"/></g></svg>