<svg xmlns="http://www.w3.org/2000/svg" xmlns:xlink="http://www.w3.org/1999/xlink" width="1080" zoomAndPan="magnify" viewBox="0 0 810 809.999993" height="1080" preserveAspectRatio="xMidYMid meet" version="1.0"><defs><clipPath id="2c2c009d5f"><path d="M 0 274.050781 L 810 274.050781 L 810 535.800781 L 0 535.800781 Z M 0 274.050781 " clip-rule="nonzero"/></clipPath></defs><g clip-path="url(#2c2c009d5f)"><path fill="#ffffff" d="M 527.472656 274.050781 C 470.164062 274.050781 418.710938 303.921875 418.710938 358.734375 C 418.710938 421.863281 509.601562 426.171875 509.601562 457.582031 C 509.601562 470.824219 494.195312 482.835938 468.316406 482.835938 C 431.34375 482.835938 403.613281 466.207031 403.613281 466.207031 L 391.90625 521.632812 C 391.90625 521.632812 423.640625 535.800781 466.160156 535.800781 C 529.011719 535.800781 578.308594 504.699219 578.308594 448.652344 C 578.308594 382.136719 487.109375 377.824219 487.109375 348.570312 C 487.109375 338.101562 499.742188 326.707031 525.625 326.707031 C 554.894531 326.707031 578.925781 338.71875 578.925781 338.71875 L 590.632812 285.136719 C 590.324219 285.136719 564.136719 274.050781 527.472656 274.050781 Z M 2.457031 278.054688 L 0.917969 286.058594 C 0.917969 286.058594 24.949219 290.371094 46.824219 299.300781 C 74.863281 309.464844 76.710938 315.3125 81.640625 333.484375 L 133.097656 531.488281 L 202.113281 531.488281 L 307.792969 278.054688 L 239.085938 278.054688 L 170.992188 450.5 L 143.261719 304.226562 C 140.796875 287.597656 127.859375 278.054688 111.835938 278.054688 C 111.835938 278.054688 2.457031 278.054688 2.457031 278.054688 Z M 335.523438 278.054688 L 281.601562 531.488281 L 347.230469 531.488281 L 400.839844 278.054688 Z M 700.9375 278.054688 C 685.222656 278.054688 676.902344 286.367188 670.742188 301.148438 L 574.613281 531.488281 L 643.320312 531.488281 L 656.570312 492.996094 L 740.375 492.996094 L 748.386719 531.488281 L 809.082031 531.488281 L 756.394531 278.054688 Z M 709.871094 346.722656 L 730.207031 441.878906 L 675.671875 441.878906 Z M 709.871094 346.722656 " fill-opacity="1" fill-rule="nonzero"/></g></svg>